PathFileType	4	(X/Y/Z)	C:/Users/beibeiliu/ov580/test_trc/User3\sequence.22_training_dense_right.trc
DataRate	CameraRate	NumFrames	NumMarkers	Units	OrigDataRate	OrigDataStartFrame	OrigNumFrames
120	120	24	19	mm	120	1	262
Frame#	Time	ThumbCMC			ThumbMCP			ThumbIP			ThumbTip			IndexMCP			IndexPIP			IndexTip			MiddleMCP			MiddlePIP			MiddleTip			RingMCP			RingPIP			RingTip			PinkyMCP			PinkyPIP			PinkyTip			BackHand1			BackHand2			BackHand3	
		X0	Y0	Z0	X1	Y1	Z1	X2	Y2	Z2	X3	Y3	Z3	X4	Y4	Z4	X5	Y5	Z5	X6	Y6	Z6	X7	Y7	Z7	X8	Y8	Z8	X9	Y9	Z9	X10	Y10	Z10	X11	Y11	Z11	X12	Y12	Z12	X13	Y13	Z13	X14	Y14	Z14	X15	Y15	Z15	X16	Y16	Z16	X17	Y17	Z17	X18	Y18	Z18	
0	0	126.462	-32.802	11.5433	101.601	-44.6793	-10.6897	89.8177	-56.8134	-36.7079	88.2691	-69.5034	-57.1429	132.518	-27.0187	-67.2752	122.537	-42.3648	-95.1964	111.345	-60.5483	-108.548	157.013	-31.6898	-75.3402	146.059	-44.7447	-102.444	137.478	-75.2175	-119.635	172.093	-40.92	-69.2087	167.864	-54.3516	-95.2785	161.315	-80.5178	-110.886	188.213	-52.1224	-55.6196	188.093	-65.0638	-78.3338	182.931	-85.0202	-91.8971	181.515	-24.2239	-19.4397	186.443	-18.4672	11.0227	153.08	-11.7924	-1.18229	
1	0.00833333	123.962	-32.9533	6.94773	105.692	-45.2067	-9.6068	91.7823	-56.9993	-38.1773	84.8901	-70.1365	-55.3387	132.076	-27.5572	-66.9008	120.239	-40.178	-95.3365	113.908	-64.2854	-109.752	153.258	-30.5951	-73.9042	144.113	-47.0075	-104.917	136.066	-76.1816	-120.678	169.412	-39.963	-71.1583	172.465	-53.7875	-93.0975	159.989	-78.8916	-110.772	187.545	-52.2688	-54.7145	187.823	-65.6045	-79.2284	177.15	-85.2829	-92.2167	180.903	-24.78	-19.2361	186.261	-19.8885	10.6878	152.264	-11.0829	-4.20057	
2	0.0166667	123.405	-32.1291	12.1884	106.057	-45.3009	-12.1664	90.4377	-56.6401	-37.4347	88.3822	-68.9565	-56.5387	132.506	-26.845	-67.4183	120.271	-36.5562	-92.6906	115.102	-60.3468	-108.953	152.737	-31.142	-79.0292	144.108	-46.079	-104.731	136.222	-77.2235	-120.951	172.348	-40.1936	-70.1935	168.583	-51.6298	-93.0276	161.018	-77.7747	-109.816	187.93	-50.6443	-56.5173	188.805	-64.6047	-76.8912	180.23	-82.572	-90.8949	181.811	-24.3084	-20.6209	189.233	-19.5999	7.44921	154.58	-10.6947	-3.05606	
3	0.025	122.118	-32.0258	9.11998	103.56	-44.7431	-9.82841	91.3501	-56.509	-39.1783	86.6198	-69.9844	-58.0502	130.455	-25.5206	-65.7101	119.423	-39.37	-95.6556	115.701	-61.6157	-110.057	156.754	-31.521	-77.3957	147.556	-47.9346	-105.644	138.953	-76.4185	-119.741	170.725	-38.5928	-71.917	168.784	-53.7569	-96.736	159.454	-77.6054	-110.049	188.116	-50.4616	-55.3437	188.782	-62.6719	-75.565	179.516	-86.1977	-92.5801	179.422	-21.5436	-20.7487	187.399	-20.6965	10.3805	150.168	-10.8131	-6.25977	
4	0.0333333	121.118	-31.1601	7.88444	104.798	-44.7103	-10.8872	91.018	-56.1688	-37.7257	88.009	-70.1052	-58.5248	131.839	-26.3156	-69.4577	119.955	-36.493	-93.9259	116.205	-60.8075	-109.506	152.814	-29.5558	-73.745	145.484	-47.8164	-104.868	136.508	-73.7811	-119.865	170.687	-39.2048	-66.6587	165.916	-53.4439	-96.5191	159.348	-78.5139	-111.538	189.901	-51.5644	-52.7339	187.671	-64.7527	-79.3336	179.436	-86.739	-91.53	180.21	-22.4075	-17.4005	190.555	-19.5099	9.97838	155.688	-12.056	-2.83657	
5	0.0416667	121.781	-31.789	6.65023	106.85	-44.8813	-11.6723	92.8651	-56.1163	-33.5418	88.2379	-68.8441	-55.1727	129.231	-25.7427	-67.7725	123.88	-38.9981	-95.7029	109.911	-61.3801	-110.961	155.402	-30.4627	-74.3215	149.09	-45.4735	-103.305	136.646	-72.0651	-119.265	169.43	-38.9431	-70.2878	169.927	-52.1823	-94.8211	158.933	-74.6257	-109.204	190.815	-52.2186	-56.6221	187.733	-62.3272	-76.5952	180.843	-87.8647	-93.8945	183.904	-24.7052	-20.6106	187.451	-20.2504	7.32749	155.097	-12.2715	-6.90609	
6	0.05	124.294	-32.0967	7.4406	103.166	-43.0096	-10.1966	87.9314	-54.7407	-36.1999	83.9403	-68.6881	-55.1052	130.532	-25.6758	-68.1911	118.767	-37.4352	-95.6964	115.374	-60.7229	-110.758	152.758	-28.8293	-75.5858	146.698	-44.3458	-103.305	136.59	-73.3603	-120.1	173.281	-39.3437	-70.9572	170.368	-52.6015	-95.0654	161.684	-75.5135	-110.09	188.441	-51.0118	-54.0242	189.746	-65.9679	-78.3642	180.173	-87.8096	-93.7643	181.206	-21.7959	-18.0488	185.684	-19.1705	9.4065	153.043	-11.6631	-6.13936	
7	0.0583333	124.314	-30.6108	11.7345	104.154	-42.0626	-10.3938	89.6475	-53.7584	-34.8161	83.9423	-66.832	-56.2315	129.055	-23.7697	-68.7426	121.501	-39.0586	-96.7722	112.272	-61.396	-112.211	154.635	-30.0662	-77.6418	146.613	-45.0218	-104.54	138.224	-76.8652	-122.288	173.677	-40.0879	-72.0194	170.806	-53.4338	-96.3418	158.945	-73.3868	-110.969	189.279	-50.2615	-53.4336	188.591	-61.6233	-76.4565	182.732	-84.5824	-94.6822	181.054	-20.3703	-23.1465	187.799	-17.6144	10.2436	152.284	-9.11999	-3.57461	
8	0.0666667	128.235	-30.2123	6.76788	105.702	-40.997	-9.1237	92.3582	-51.9762	-31.7464	83.0781	-64.9101	-51.6563	131.319	-24.5467	-69.5869	120.573	-35.5285	-95.765	114.064	-55.7404	-110.296	155.882	-29.1694	-76.6667	146.607	-45.9599	-106.061	136.352	-69.0962	-120.374	171.775	-37.5494	-68.2267	168.405	-50.0129	-94.2279	158.953	-75.3796	-113.098	190.755	-50.5813	-55.9986	186.483	-62.599	-78.6151	184.404	-83.5917	-92.672	186.748	-21.5309	-22.7558	192.372	-18.9806	5.94738	157.491	-10.3201	-3.51198	
9	0.075	129.004	-26.7546	12.3256	107.227	-39.6709	-8.16391	91.3615	-49.2588	-29.3507	81.6925	-61.6023	-50.671	133.842	-23.4467	-69.1505	119.457	-31.6124	-91.7227	111.188	-55.3197	-110.621	152.51	-27.3947	-78.9548	145.29	-43.9493	-105.926	133.709	-66.2786	-122.362	172.857	-37.6067	-68.8737	166.817	-48.7886	-94.4286	157.049	-71.8301	-112.591	193.071	-51.6059	-57.1582	187.907	-62.5523	-79.1063	180.001	-80.1048	-95.533	183.268	-21.9311	-20.3873	194.154	-19.2211	3.68352	162.116	-8.1707	-3.89598	
10	0.0833333	134.517	-24.6447	9.23456	107.504	-35.0529	-8.14153	89.114	-46.3701	-27.5008	81.0048	-58.79	-47.3189	133.507	-20.7839	-64.7395	118.21	-31.1662	-93.7285	113.285	-48.8516	-110.476	155.486	-28.8743	-78.2228	148.463	-40.9154	-103.663	134.059	-64.787	-123.011	173.885	-39.5784	-73.0876	167.431	-50.0014	-95.4945	156.292	-70.9977	-113.286	193.67	-53.9346	-57.8457	187.317	-63.6156	-79.1712	177.947	-83.2878	-97.701	186.8	-21.8265	-20.227	197.835	-16.8512	5.66185	164.239	-9.12594	-4.09668	
11	0.0916667	138.243	-19.5782	13.7913	115.682	-29.5288	-5.37358	90.3399	-38.3521	-27.2298	76.5744	-49.7183	-43.7137	133.978	-18.4023	-66.676	121.718	-26.937	-92.9044	108.958	-43.2274	-111.152	155.869	-27.4028	-74.9904	146.737	-40.1642	-104.483	129.238	-59.157	-124.427	174.304	-41.2054	-72.4812	167.79	-52.5311	-94.7699	152.148	-71.4831	-114.136	188.739	-54.7896	-60.3544	185.947	-68.4924	-81.4601	177.427	-86.3085	-96.0087	191.477	-25.1789	-26.9822	201.487	-19.8214	2.51729	165.512	-6.70563	-8.9204	
12	0.1	141.634	-12.1023	12.5855	117.566	-21.2834	-3.75895	93.8148	-27.9142	-18.645	76.9681	-36.7852	-34.1538	136.666	-13.5719	-69.103	123.678	-21.6248	-92.1039	108.085	-30.7525	-107.275	156.372	-27.4688	-80.3276	146.345	-42.2812	-105.56	128.702	-57.7377	-123.926	172.331	-43.4503	-73.699	164.973	-56.6653	-96.9873	147.517	-68.6243	-114.297	189.672	-59.3191	-60.3633	181.656	-69.9112	-79.5898	169.715	-85.8095	-95.2211	194.704	-25.3188	-27.6221	205.477	-23.6743	-0.216092	174.719	-3.4907	-8.0494	
13	0.108333	150.06	-9.20475	8.49275	120.455	-13.3367	-2.24304	96.9525	-17.3799	-17.3187	77.5653	-23.9862	-27.193	143.861	-12.2244	-67.079	127.308	-15.9896	-91.7747	107.225	-25.0725	-110.735	162.696	-29.3739	-77.1945	147.012	-37.8058	-102.316	123.938	-54.2571	-124.517	172.719	-46.0372	-75.0635	158.765	-50.7782	-93.8265	145.66	-65.0554	-111.455	187.844	-62.9388	-57.1195	175.986	-73.4208	-79.9669	163.121	-82.6042	-92.921	197.695	-28.9218	-25.6795	209.607	-27.7055	-3.27364	181.652	-2.68775	-9.65482	
14	0.116667	154.787	-1.86816	8.47915	124.068	-1.53316	1.89816	99.3997	-4.47295	-13.518	76.4144	-9.35569	-27.3617	145.946	-3.5895	-70.6398	128.226	-8.68242	-92.7731	109.163	-12.0921	-107.173	159.038	-23.1959	-78.2143	145.149	-32.454	-101.242	117.907	-43.0094	-121.509	170.827	-44.2936	-73.7098	154.476	-49.0958	-97.2524	133.522	-58.0998	-112.978	179.97	-62.1386	-56.9989	171.022	-72.2374	-77.9687	150.028	-80.177	-94.7393	199.664	-35.0692	-28.6361	211.732	-30.387	-2.97047	186.36	-4.85212	-14.1361	
15	0.125	161.625	8.05666	7.01744	131	9.13415	0.964854	103.818	11.6284	-10.2338	83.0073	6.93655	-21.1517	151.283	4.9738	-70.7015	129.999	4.62158	-92.0212	110.329	2.81389	-105.879	159.042	-17.978	-80.9572	138.03	-19.7262	-103.266	112.656	-25.5549	-118.194	165.173	-34.5007	-74.2074	152.563	-42.8137	-94.9049	126.173	-47.228	-110.671	171.687	-58.6427	-58.222	158.236	-64.9546	-77.5862	137.426	-68.2632	-92.602	199.848	-37.4327	-29.8068	212.552	-37.9659	-7.66455	194.213	-4.37493	-13.0088	
16	0.133333	168.453	8.95211	6.02424	134.818	18.5216	0.342634	107.408	19.6451	-13.6218	84.9388	16.8981	-22.0338	155.269	9.27057	-72.6436	134.412	13.2229	-91.4746	110.68	8.50132	-105.574	161.442	-12.8677	-78.9242	138.983	-12.479	-101.259	109.86	-18.616	-114.226	163.637	-32.0075	-70.271	143.351	-34.0577	-95.3816	116.718	-34.57	-107.64	164.853	-55.8095	-55.8662	145.855	-55.9492	-77.9238	124.387	-56.43	-90.4774	196.725	-37.4912	-29.8538	210.898	-41.9763	-5.30672	198.217	-6.82296	-13.7726	
17	0.141667	170.859	14.8249	3.6407	137.022	20.7351	-3.73245	110.707	28.7677	-10.3968	89.1987	24.6185	-20.8886	159.124	8.98357	-74.6263	137.575	13.9834	-93.5164	113.313	15.4157	-101.926	159.689	-13.0013	-82.2556	135.532	-9.45825	-103.268	104.861	-4.82451	-111.72	159.865	-27.9348	-73.7877	136.571	-30.9107	-95.4665	112.456	-24.8886	-102.398	157.605	-49.4857	-59.257	138.482	-50.7257	-77.5933	117.426	-52.0995	-88.3047	193.38	-39.9636	-30.7989	207.529	-44.4193	-3.8071	199.885	-5.19693	-14.9649	
18	0.15	174.879	17.9066	6.76357	139.287	25.6452	-4.22404	112.744	33.3871	-10.8627	88.8487	28.7995	-23.7359	163.28	13.1955	-72.9812	141.927	16.6679	-92.9797	111.334	17.9934	-100.636	160.449	-7.82891	-83.4646	138.227	-6.7066	-100.803	101.5	-2.49748	-106.327	158.196	-31.304	-71.4587	137.566	-26.1022	-92.6347	106.665	-18.9419	-97.3775	154.768	-47.9332	-55.9233	133.666	-44.4721	-76.8459	112.642	-43.3902	-82.7759	190.629	-35.9562	-31.8926	201.736	-42.0641	-4.47397	200.994	-8.95478	-16.8112	
19	0.158333	174.238	18.0527	3.91657	140.753	24.7551	-6.26471	115.467	31.2181	-13.4119	90.6532	27.9432	-25.4984	164.785	13.0533	-70.4963	141.932	19.7226	-92.7635	115.222	25.8602	-96.9035	158.984	-11.2812	-82.7803	134.194	-3.41728	-100.034	98.7683	4.23316	-100.399	154.645	-27.5609	-74.9373	132.862	-20.3947	-91.6384	101.043	-13.9159	-91.5503	152.316	-44.3305	-54.7984	132.27	-42.1605	-73.9554	107.123	-31.3971	-80.8689	189.148	-35.6234	-33.4278	200.444	-44.4504	-7.33345	201.733	-10.4907	-14.77	
20	0.166667	173.321	15.2604	2.39325	142.969	26.2315	-2.66619	112.928	35.9416	-12.8759	93.3839	24.4031	-26.8608	163.282	9.92807	-72.2564	141.467	22.2338	-91.8334	113.464	27.2678	-93.8239	161.533	-7.22637	-79.1264	135.812	-2.26255	-98.9992	96.9203	9.31232	-95.9434	154.539	-25.3684	-74.0397	129.635	-18.8356	-90.3502	101.855	-16.45	-88.7209	149.454	-46.8626	-57.8765	130.014	-42.5937	-72.1545	103.779	-33.6236	-76.3449	189.695	-41.7369	-29.1354	201.321	-47.0517	-4.50761	199.835	-5.42165	-18.4888	
21	0.175	173.827	17.7394	2.59003	140.356	25.1378	-5.7719	112.077	35.5108	-14.5185	92.2244	25.6341	-24.6733	161.843	12.4151	-74.7568	142.557	21.8999	-91.0335	108.717	27.3852	-92.1881	159.447	-8.04894	-81.04	131.943	2.27728	-98.3101	97.1953	7.53235	-94.1275	153.268	-27.4803	-74.7943	131.813	-21.6438	-88.1193	101.116	-15.8968	-87.2369	148.661	-44.9896	-59.7549	128.797	-38.6638	-71.7716	104.123	-30.576	-74.6837	191.391	-36.2533	-28.3058	200.525	-44.8137	-3.43923	201.481	-10.2508	-15.618	
22	0.183333	174.045	16.5874	3.38474	142.484	24.7978	-2.75174	112.334	32.575	-17.7945	91.53	22.701	-27.8913	162.129	13.1664	-73.9394	137.247	20.3939	-89.4322	109.594	24.0393	-90.5293	159.998	-11.2285	-77.2614	132.786	-2.96266	-96.5035	95.4091	6.36905	-91.2231	154.973	-29.0702	-70.3276	131.102	-20.8926	-88.1574	99.6858	-16.6374	-85.3766	149.786	-41.9792	-58.4163	128.735	-41.8728	-71.1612	104.812	-28.6287	-75.3319	190.004	-36.197	-32.3099	201.156	-42.9761	-0.603803	199.53	-8.6783	-17.4041	
23	0.191667	173.95	18.1269	6.83904	140.62	25.0345	-2.95078	114.861	29.7639	-14.3875	89.5051	25.3614	-26.5316	162.885	10.3029	-69.5833	136.878	21.9921	-89.1276	109.45	21.8999	-88.9087	161.043	-7.07228	-76.5431	132.466	-2.12923	-96.0532	98.4742	5.4419	-92.153	153.765	-26.9797	-70.7952	127.014	-23.3073	-88.3105	97.4843	-12.6037	-82.9987	150.124	-44.0564	-58.1071	133.485	-40.3712	-70.9884	104.342	-33.0688	-73.9922	187.685	-37.4393	-31.3369	202.559	-44.1644	-1.60302	201.392	-8.38666	-13.1879	
